<svg xmlns="http://www.w3.org/2000/svg" xmlns:xlink="http://www.w3.org/1999/xlink" width="500" zoomAndPan="magnify" viewBox="0 0 375 374.999991" height="500" preserveAspectRatio="xMidYMid meet" version="1.0"><defs><clipPath id="775089ef36"><path d="M 98.925781 25.582031 L 275.925781 25.582031 L 275.925781 346.582031 L 98.925781 346.582031 Z M 98.925781 25.582031 " clip-rule="nonzero"/></clipPath><clipPath id="835ba2ac43"><path d="M 47 47 L 328 47 L 328 328 L 47 328 Z M 47 47 " clip-rule="nonzero"/></clipPath><clipPath id="6123886c48"><path d="M 11.507812 136.769531 L 136.667969 11.609375 L 363.648438 238.589844 L 238.492188 363.75 Z M 11.507812 136.769531 " clip-rule="nonzero"/></clipPath><clipPath id="f469df4001"><path d="M 11.507812 136.769531 L 136.667969 11.609375 L 363.648438 238.589844 L 238.492188 363.75 Z M 11.507812 136.769531 " clip-rule="nonzero"/></clipPath><clipPath id="007b37a83d"><path d="M 27.183594 99.066406 L 348 99.066406 L 348 276.066406 L 27.183594 276.066406 Z M 27.183594 99.066406 " clip-rule="nonzero"/></clipPath><clipPath id="44b54c9493"><path d="M 47 47 L 328 47 L 328 327 L 47 327 Z M 47 47 " clip-rule="nonzero"/></clipPath><clipPath id="e6a1aee8e2"><path d="M 136.765625 363.484375 L 11.609375 238.324219 L 238.589844 11.34375 L 363.746094 136.503906 Z M 136.765625 363.484375 " clip-rule="nonzero"/></clipPath><clipPath id="7d68e8f23e"><path d="M 136.765625 363.484375 L 11.609375 238.324219 L 238.589844 11.34375 L 363.746094 136.503906 Z M 136.765625 363.484375 " clip-rule="nonzero"/></clipPath></defs><g clip-path="url(#775089ef36)"><path fill="#ffffff" d="M 187.519531 40.617188 C 228.179688 40.617188 261.011719 73.058594 261.011719 113.257812 L 261.011719 258.542969 C 261.011719 298.746094 228.179688 331.191406 187.519531 331.191406 C 146.835938 331.191406 114.003906 298.746094 114.003906 258.542969 L 114.003906 113.257812 C 114.003906 73.058594 146.835938 40.617188 187.519531 40.617188 Z M 187.519531 25.582031 C 163.871094 25.582031 141.648438 34.671875 124.941406 51.171875 C 108.207031 67.71875 98.976562 89.769531 98.976562 113.257812 L 98.976562 258.542969 C 98.976562 282.035156 108.207031 304.085938 124.941406 320.632812 C 141.648438 337.136719 163.871094 346.222656 187.519531 346.222656 C 211.167969 346.222656 233.390625 337.136719 250.074219 320.632812 C 266.828125 304.085938 276.035156 282.035156 276.035156 258.542969 L 276.035156 113.257812 C 276.035156 89.769531 266.828125 67.71875 250.074219 51.171875 C 233.390625 34.671875 211.167969 25.582031 187.519531 25.582031 Z M 187.519531 25.582031 " fill-opacity="1" fill-rule="nonzero"/></g><g clip-path="url(#835ba2ac43)"><g clip-path="url(#6123886c48)"><g clip-path="url(#f469df4001)"><path fill="#ffffff" d="M 84.785156 84.753906 C 113.535156 56.003906 159.691406 55.730469 188.117188 84.15625 L 290.847656 186.886719 C 319.277344 215.3125 319.003906 261.472656 290.253906 290.222656 C 261.484375 318.988281 215.328125 319.261719 186.898438 290.835938 L 84.167969 188.105469 C 55.742188 159.679688 56.015625 113.523438 84.785156 84.753906 Z M 74.15625 74.125 C 57.433594 90.847656 48.144531 112.984375 47.996094 136.46875 C 47.867188 160 56.933594 182.117188 73.542969 198.730469 L 176.273438 301.460938 C 192.886719 318.070312 215.003906 327.136719 238.539062 327.007812 C 262.019531 326.863281 284.160156 317.574219 300.882812 300.851562 C 317.605469 284.128906 326.890625 261.992188 327.019531 238.523438 C 327.167969 214.972656 318.085938 192.871094 301.472656 176.261719 L 198.742188 73.53125 C 182.132812 56.921875 160.03125 47.839844 136.480469 47.984375 C 113.015625 48.113281 90.875 57.402344 74.15625 74.125 Z M 74.15625 74.125 " fill-opacity="1" fill-rule="nonzero"/></g></g></g><g clip-path="url(#007b37a83d)"><path fill="#ffffff" d="M 42.21875 187.476562 C 42.21875 146.816406 74.660156 113.984375 114.859375 113.984375 L 260.144531 113.984375 C 300.347656 113.984375 332.792969 146.816406 332.792969 187.476562 C 332.792969 228.160156 300.347656 260.988281 260.144531 260.988281 L 114.859375 260.988281 C 74.660156 260.988281 42.21875 228.160156 42.21875 187.476562 Z M 27.183594 187.476562 C 27.183594 211.121094 36.273438 233.347656 52.773438 250.054688 C 69.320312 266.785156 91.371094 276.015625 114.859375 276.015625 L 260.144531 276.015625 C 283.636719 276.015625 305.6875 266.785156 322.238281 250.054688 C 338.738281 233.347656 347.828125 211.121094 347.828125 187.476562 C 347.828125 163.828125 338.738281 141.605469 322.238281 124.917969 C 305.6875 108.164062 283.636719 98.957031 260.144531 98.957031 L 114.859375 98.957031 C 91.371094 98.957031 69.320312 108.164062 52.773438 124.917969 C 36.273438 141.605469 27.183594 163.828125 27.183594 187.476562 Z M 27.183594 187.476562 " fill-opacity="1" fill-rule="nonzero"/></g><g clip-path="url(#44b54c9493)"><g clip-path="url(#e6a1aee8e2)"><g clip-path="url(#7d68e8f23e)"><path fill="#ffffff" d="M 84.753906 290.210938 C 56.003906 261.457031 55.726562 215.300781 84.152344 186.875 L 186.886719 84.144531 C 215.3125 55.71875 261.46875 55.988281 290.222656 84.742188 C 318.988281 113.507812 319.261719 159.667969 290.835938 188.09375 L 188.101562 290.824219 C 159.675781 319.25 113.519531 318.976562 84.753906 290.210938 Z M 74.125 300.839844 C 90.84375 317.5625 112.984375 326.847656 136.46875 326.996094 C 160 327.125 182.117188 318.058594 198.726562 301.449219 L 301.460938 198.71875 C 318.070312 182.109375 327.136719 159.988281 327.007812 136.457031 C 326.859375 112.972656 317.574219 90.832031 300.851562 74.109375 C 284.128906 57.390625 261.988281 48.101562 238.523438 47.972656 C 214.972656 47.828125 192.871094 56.910156 176.261719 73.519531 L 73.527344 176.25 C 56.917969 192.859375 47.835938 214.964844 47.984375 238.511719 C 48.113281 261.976562 57.402344 284.117188 74.125 300.839844 Z M 74.125 300.839844 " fill-opacity="1" fill-rule="nonzero"/></g></g></g></svg>