<svg width="604" height="205" viewBox="0 0 604 205" fill="none" xmlns="http://www.w3.org/2000/svg">
<g clip-path="url(#clip0_468_46)">
<rect x="530.477" y="160.501" width="60.5231" height="29.1738" rx="14.5869" fill="#979981"/>
<path d="M85.7849 184.508C39.5415 184.508 8.93592 149.658 8.93592 101.627C8.93592 53.5968 39.5415 18.9701 85.7849 18.9701C131.805 18.9701 162.41 53.5968 162.41 101.627C162.41 149.658 131.805 184.508 85.7849 184.508ZM85.7849 170.211C125.103 170.211 145.432 139.382 145.432 101.627C145.432 63.8731 125.103 33.2676 85.7849 33.2676C46.2434 33.2676 25.9142 63.8731 25.9142 101.627C25.9142 139.382 46.2434 170.211 85.7849 170.211ZM237.851 64.9901C258.18 64.9901 275.158 76.3834 275.158 101.627V181.604H260.638V104.755C260.638 90.2341 253.936 77.7238 234.277 77.7238C212.607 77.7238 198.309 92.9149 198.309 109.67V181.604H183.789V67.6709H198.309V83.979H198.756C205.235 74.5962 217.522 64.9901 237.851 64.9901ZM400.795 119.499C400.795 122.627 400.795 125.754 400.572 127.542H310.319C310.543 150.552 322.829 172.221 349.637 172.221C373.094 172.221 382.253 156.137 384.487 146.754H399.232C393.647 167.53 378.009 184.732 349.414 184.732C314.564 184.732 295.128 159.264 295.128 124.637C295.128 88.2235 316.574 64.7667 349.414 64.7667C382.253 64.7667 400.795 87.7767 400.795 119.499ZM310.319 114.808H385.381C385.381 94.4787 372.2 77.277 348.744 77.277C326.627 77.277 311.436 93.5851 310.319 114.808ZM463.148 184.508C431.202 184.508 413.777 167.083 413.107 144.296H428.298C429.191 159.934 439.468 171.774 463.371 171.774C485.041 171.774 492.413 161.722 492.413 150.552C492.413 133.797 475.435 132.01 459.574 128.212C438.574 122.85 417.351 117.712 417.351 95.5957C417.351 77.0536 432.096 64.9901 457.786 64.9901C487.498 64.9901 501.349 80.8514 503.36 99.6168H488.168C486.158 89.5639 480.126 77.7238 458.01 77.7238C441.702 77.7238 432.542 83.979 432.542 94.7021C432.542 109 447.957 111.01 465.158 115.255C486.605 120.393 507.828 126.425 507.828 150.105C507.828 170.881 491.296 184.508 463.148 184.508Z" fill="#F9EFE8"/>
</g>
<defs>
<clipPath id="clip0_468_46">
<rect width="604" height="205" fill="white"/>
</clipPath>
</defs>
</svg>
