<svg xmlns="http://www.w3.org/2000/svg" width="960" height="905" viewBox="0 0 960 905" fill="none" overflow="visible">
<path d="M889.131 225.945L889.906 226.585L737.15 411.791L736.375 411.152L889.131 225.945ZM878.366 113.745C844.413 85.7347 794.185 90.5551 766.179 124.511L613.423 309.718C585.416 343.674 590.236 393.908 624.188 421.918C658.14 449.928 708.368 445.108 736.375 411.152L737.15 411.791L736.481 412.591C708.221 445.985 658.452 450.761 624.358 423.352L623.549 422.693C589.437 394.552 584.366 344.256 611.989 309.887L612.648 309.078L765.404 123.872C793.763 89.4875 844.625 84.6063 879.005 112.97L879.805 113.639C913.194 141.903 917.97 191.677 890.564 225.776L889.906 226.585L889.131 225.945C917.137 191.989 912.318 141.755 878.366 113.745Z" fill="white"/>
<path d="M889.131 225.945L889.906 226.585L737.15 411.791L736.375 411.152L889.131 225.945ZM878.366 113.745C844.413 85.7347 794.185 90.5551 766.179 124.511L613.423 309.718C585.416 343.674 590.236 393.908 624.188 421.918C658.14 449.928 708.368 445.108 736.375 411.152L737.15 411.791L736.481 412.591C708.221 445.985 658.452 450.761 624.358 423.352L623.549 422.693C589.437 394.552 584.366 344.256 611.989 309.887L612.648 309.078L765.404 123.872C793.763 89.4875 844.625 84.6063 879.005 112.97L879.805 113.639C913.194 141.903 917.97 191.677 890.564 225.776L889.906 226.585L889.131 225.945C917.137 191.989 912.318 141.755 878.366 113.745Z" fill="white"/>
<path d="M502.022 -140.243L502.992 -140.503L581.381 152.085L580.411 152.345L502.022 -140.243ZM378.556 -211.535C324.779 -197.123 292.865 -141.839 307.274 -88.0547L385.664 204.534C400.073 258.318 455.35 290.236 509.128 275.824C562.906 261.413 594.82 206.129 580.411 152.345L581.381 152.085L581.713 153.358C595.429 207.275 563.277 262.354 509.388 276.795C455.074 291.35 399.246 259.114 384.693 204.794L306.304 -87.7946C291.751 -142.115 323.983 -197.95 378.296 -212.506L379.57 -212.838C433.056 -226.447 487.685 -194.903 502.643 -141.772L502.992 -140.503L502.022 -140.243C487.612 -194.028 432.334 -225.946 378.556 -211.535Z" fill="white"/>
<path d="M728.839 841.043L728.129 841.753L546.869 660.471L547.579 659.761L728.839 841.043ZM849.283 841.043C882.543 807.779 882.542 753.848 849.283 720.585L668.023 539.302C634.763 506.039 580.839 506.039 547.58 539.302C514.32 572.566 514.32 626.497 547.579 659.761L546.869 660.471L546.087 659.678C513.219 625.963 513.48 571.985 546.869 538.592C580.521 504.936 635.081 504.936 668.733 538.592L849.993 719.874C883.645 753.53 883.646 808.097 849.994 841.753L849.201 842.536C815.756 875.148 762.367 875.148 728.922 842.536L728.129 841.753L728.839 841.043C762.099 874.306 816.024 874.306 849.283 841.043Z" fill="white"/>
<path d="M93.959 283.532L94.9211 283.822L20.8966 529.58L19.9345 529.29L93.959 283.532ZM36.9113 177.283C-8.17795 163.698 -55.7411 189.243 -69.3241 234.338L-143.349 480.096C-156.931 525.19 -131.39 572.759 -86.3015 586.344C-41.2123 599.928 6.35141 574.385 19.9345 529.29L20.8966 529.58L20.5685 530.646C6.40205 575.607 -41.3271 600.943 -86.5913 587.306C-132.212 573.561 -158.053 525.432 -144.311 479.806L-70.2862 234.048C-56.5432 188.422 -8.41948 162.576 37.2011 176.32L38.2671 176.65C82.8692 190.706 108.157 237.802 95.2363 282.751L94.9211 283.822L93.959 283.532C107.542 238.437 82.0006 190.867 36.9113 177.283Z" fill="white"/>
<path d="M438.93 901.201L438.829 902.201L191.86 877.286L191.961 876.286L438.93 901.201ZM529.225 827.444C533.794 782.14 500.776 741.708 455.477 737.139L208.507 712.224C163.209 707.654 122.783 740.676 118.213 785.98C113.644 831.285 146.662 871.716 191.961 876.286L191.86 877.286L190.787 877.171C145.489 872.021 112.625 831.378 117.214 785.879C121.839 740.023 162.757 706.598 208.608 711.224L455.578 736.139C501.429 740.764 534.85 781.688 530.225 827.545L530.11 828.617C525.001 873.565 484.96 906.272 439.903 902.302L438.829 902.201L438.93 901.201C484.229 905.771 524.656 872.749 529.225 827.444Z" fill="white"/>
<path d="M1387.43 903.995V905H1112.06V903.995H1387.43ZM1479 812.42C1479 761.845 1438 720.845 1387.43 720.845H1112.06C1061.49 720.845 1020.49 761.845 1020.49 812.42C1020.49 862.996 1061.49 903.995 1112.06 903.995V905L1110.86 904.993C1060.69 904.358 1020.13 863.798 1019.5 813.617L1019.49 812.42C1019.49 761.689 1060.29 720.488 1110.86 719.847L1112.06 719.84H1387.43L1388.63 719.847C1439.2 720.488 1480 761.689 1480 812.42L1479.99 813.617C1479.36 863.798 1438.8 904.358 1388.63 904.993L1387.43 905V903.995C1438 903.995 1478.99 862.996 1479 812.42Z" fill="white"/>
<path d="M1180.91 635.962L1180.71 636.949L918.67 585.669L918.863 584.683L1180.91 635.962ZM1285.05 565.895C1294.46 517.785 1263.1 471.152 1214.99 461.738L952.949 410.458C904.844 401.044 858.217 432.414 848.805 480.525C839.392 528.636 870.758 575.269 918.863 584.683L918.67 585.669C870.021 576.148 838.299 528.988 847.818 480.332C857.338 431.677 904.493 399.952 953.142 409.472L1215.18 460.752C1263.83 470.272 1295.56 517.433 1286.04 566.088C1276.52 614.744 1229.36 646.469 1180.71 636.949L1180.91 635.962C1229.01 645.376 1275.64 614.006 1285.05 565.895Z" fill="white"/>
<path d="M1046.56 190.819L1045.93 190.041L1238.18 33.0031L1238.81 33.7814L1046.56 190.819ZM1034.86 306.83C1063.66 342.096 1115.6 347.334 1150.86 318.531L1343.11 161.493C1378.37 132.689 1383.61 80.7504 1354.81 45.484C1326.01 10.2175 1274.08 4.97775 1238.81 33.7814L1238.18 33.0031L1239.02 32.3261C1274.69 3.93309 1326.66 9.43083 1355.59 44.8483C1384.74 80.5446 1379.44 133.117 1343.74 162.271L1151.5 319.309C1115.8 348.464 1063.24 343.161 1034.09 307.465L1033.41 306.626C1005.24 271.23 1010.43 219.785 1045.1 190.728L1045.93 190.041L1046.56 190.819C1011.3 219.623 1006.06 271.563 1034.86 306.83Z" fill="white"/>
</svg>
